<svg class="svgicon" xmlns="http://www.w3.org/2000/svg" viewBox="0 0 60 60"><rect width="60" height="60" rx="50%" ry="50%" fill="transparent"/><g transform="matrix(.6 0 0 .6 12 12)"><circle class="st0" cx="30" cy="30.002" r="29"/><circle class="st0" cx="30.001" cy="30" r="3.979"/><path class="st0" d="M26.209 31.298H15.134a1.296 1.296 0 1 1 0-2.594h11.117m5.478-2.266l7.865-7.864a1.293 1.293 0 0 1 1.833 0 1.294 1.294 0 0 1 0 1.834l-7.822 7.822"/><circle class="st0" cx="30" cy="8.421" r="1.678"/><path class="st0" d="M28.322 51.582A1.68 1.68 0 0 1 30 49.901a1.68 1.68 0 0 1 0 3.359 1.679 1.679 0 0 1-1.678-1.678z"/><circle class="st0" cx="51.58" cy="30" r="1.678"/><circle class="st0" cx="8.42" cy="30" r="1.678"/><circle class="st0" cx="45.26" cy="14.741" r="1.678"/><circle class="st0" cx="14.741" cy="45.26" r="1.678"/><circle class="st0" cx="45.26" cy="45.26" r="1.678"/><circle class="st0" cx="14.741" cy="14.741" r="1.679"/></g></svg>